<?xml version="1.0" encoding="UTF-8"?>
<svg version="1.1" xmlns="http://www.w3.org/2000/svg" width="512" height="512">
<path d="M0 0 C1.03614762 -0.00453111 2.07229523 -0.00906223 3.13984126 -0.01373065 C6.60496641 -0.02637095 10.06993432 -0.02475449 13.53507996 -0.02310181 C16.02232057 -0.02908726 18.50955934 -0.03589284 20.99679565 -0.04345703 C27.04782746 -0.05928781 33.09879766 -0.06556532 39.14984445 -0.06668179 C44.07045945 -0.06763354 48.99106164 -0.07175015 53.91167259 -0.07808304 C67.87539764 -0.09568765 81.839092 -0.10492309 95.80282823 -0.10342209 C96.55494005 -0.10334218 97.30705187 -0.10326227 98.08195496 -0.10317993 C99.21150676 -0.10305729 99.21150676 -0.10305729 100.3638778 -0.10293217 C112.56553213 -0.10211941 124.76706298 -0.12125655 136.96868161 -0.14945666 C149.50983792 -0.17821185 162.05093406 -0.19199552 174.59212416 -0.19026911 C181.6279956 -0.18960614 188.66373757 -0.19505779 195.69957924 -0.21662521 C202.31768413 -0.23678282 208.93556273 -0.23613643 215.55369759 -0.22159195 C217.97963104 -0.21950196 220.40558156 -0.224216 222.83148575 -0.23631287 C226.14945171 -0.25178361 229.46647763 -0.24244411 232.78442383 -0.22705078 C234.21602025 -0.24248147 234.21602025 -0.24248147 235.67653781 -0.25822389 C245.26114457 -0.16031447 252.9368235 2.89487481 259.89518738 9.47445679 C265.35015619 15.27036115 267.84499324 21.24860558 267.80973816 29.18099976 C267.8095871 30.32172943 267.80943604 31.46245911 267.8092804 32.63775635 C267.79895782 33.85359406 267.78863525 35.06943176 267.77799988 36.32211304 C267.77375504 38.20714035 267.77375504 38.20714035 267.76942444 40.13024902 C267.7601486 43.45443418 267.74221119 46.77833978 267.72001648 50.10244751 C267.6994755 53.50116575 267.69040516 56.89991298 267.68034363 60.29867554 C267.65832117 66.95500221 267.62487171 73.61119775 267.58268738 80.26742554 C269.40473694 80.23600464 269.40473694 80.23600464 271.26359558 80.20394897 C275.8165332 80.13096124 280.36942024 80.08541417 284.92277527 80.04769897 C286.88477811 80.02771636 288.84672243 80.0005207 290.80851746 79.96566772 C316.42309957 79.52235096 316.42309957 79.52235096 325.95768738 88.45492554 C335.24923632 97.49575014 337.56998427 107.12532186 337.80179811 119.81425512 C337.84044458 124.22946061 337.82733354 128.64389178 337.80973816 133.05917358 C337.80917326 135.05091852 337.80949215 137.04266387 337.81062317 139.03440857 C337.81119459 144.41378785 337.79947448 149.79307708 337.78547525 155.17243552 C337.77293267 160.80450208 337.77179462 166.43657093 337.76942444 172.06864929 C337.76322002 182.72142573 337.74682328 193.37416089 337.72672546 204.02691919 C337.70433411 216.15994854 337.6933649 228.29297991 337.68333459 240.42602479 C337.66245611 265.37318122 337.62730037 290.32030106 337.58268738 315.26742554 C338.6896698 315.40535522 339.79665222 315.54328491 340.93717957 315.68539429 C344.64261947 316.27699412 346.07359758 316.8448101 348.83268738 319.26742554 C349.47721863 319.80367554 350.12174988 320.33992554 350.78581238 320.89242554 C355.84256502 327.57613338 356.19844351 335.92837783 356.70768738 344.01742554 C356.78551453 345.13705688 356.86334167 346.25668823 356.94352722 347.4102478 C359.22415799 382.00459558 359.01134181 416.5542227 356.70768738 451.14242554 C356.608349 452.79854858 356.608349 452.79854858 356.50700378 454.48812866 C355.9079316 462.71930384 354.66544728 470.18466563 348.58268738 476.26742554 C344.14388744 478.86211763 340.36001458 479.82053484 335.27018738 480.39242554 C334.03655457 480.53937866 332.80292175 480.68633179 331.53190613 480.83773804 C329.88294759 480.98969531 328.23305067 481.13157155 326.58268738 481.26742554 C325.5151825 481.35645142 324.44767761 481.44547729 323.3478241 481.53720093 C309.7637706 482.49987071 296.16076679 482.45479774 282.54948425 482.45272827 C279.75970386 482.45264764 276.97008989 482.45950362 274.18034363 482.47323608 C259.25239777 482.54532387 244.37573636 482.38033039 229.47331238 481.44320679 C228.27526978 481.37385422 227.07722717 481.30450165 225.84288025 481.23304749 C218.67071965 480.72071796 213.68508188 479.54939397 207.40397644 476.05551147 C205.13236212 475.0725663 203.86637871 475.23426544 201.44206238 475.65805054 C200.22595276 475.8555188 200.22595276 475.8555188 198.98527527 476.05697632 C198.10992126 476.20892456 197.23456726 476.3608728 196.33268738 476.51742554 C188.45022095 477.76082971 180.59890663 478.73901871 172.64518738 479.39242554 C171.32889343 479.50505737 171.32889343 479.50505737 169.98600769 479.6199646 C152.31806157 481.0225819 134.61284599 481.47234341 116.89518738 481.45492554 C115.93510773 481.45498596 114.97502808 481.45504639 113.9858551 481.45510864 C90.72433977 481.43449077 67.34436701 480.75651852 44.26628113 477.63461304 C35.31963187 476.74279434 26.42378841 477.49562771 17.47747612 478.10825348 C-0.56716248 479.31815397 -18.56005157 479.57982879 -36.64021301 479.52816772 C-39.8684781 479.51904442 -43.0965182 479.51905729 -46.32478333 479.52816772 C-62.76520936 479.57455876 -79.20457035 479.48144228 -95.6282177 478.66847992 C-97.04627326 478.60009138 -98.46469504 478.53884682 -99.88339424 478.48545074 C-107.65752669 478.17963118 -114.55226948 477.8718959 -120.41731262 472.26742554 C-124.45643492 466.70887698 -125.17447545 461.00351766 -125.41731262 454.26742554 C-125.45727356 453.54812866 -125.4972345 452.82883179 -125.53840637 452.08773804 C-125.78393445 444.20195384 -125.81443164 434.58383905 -120.79231262 428.14242554 C-113.05835727 420.72076767 -102.45284957 421.5981421 -92.41731262 421.26742554 C-94.0628009 421.13787476 -94.0628009 421.13787476 -95.74153137 421.00570679 C-97.19607168 420.86494482 -98.6504933 420.72295259 -100.10481262 420.57992554 C-100.82604309 420.52642944 -101.54727356 420.47293335 -102.2903595 420.41781616 C-106.27919505 419.99889736 -108.14796769 419.47004243 -111.44465637 416.99008179 C-113.41731262 414.26742554 -113.41731262 414.26742554 -113.72200012 411.83773804 C-113.50930481 410.62730835 -113.50930481 410.62730835 -113.29231262 409.39242554 C-113.15696106 408.51844116 -113.0216095 407.64445679 -112.88215637 406.74398804 C-112.72875793 405.92672241 -112.5753595 405.10945679 -112.41731262 404.26742554 C-110.98464172 395.35302879 -111.24605633 387.58743989 -112.95246887 378.74398804 C-113.51423028 375.75107429 -113.92119352 373.29071095 -113.41731262 370.26742554 C-111.16731262 367.39242554 -111.16731262 367.39242554 -108.41731262 365.26742554 C-107.09731262 365.26742554 -105.77731262 365.26742554 -104.41731262 365.26742554 C-104.420078 363.957288 -104.42284338 362.64715046 -104.42569256 361.29731178 C-104.4907048 330.1780251 -104.54015352 299.05875639 -104.57050861 267.93941764 C-104.57426061 264.10685895 -104.57814359 260.27430041 -104.58210754 256.44174194 C-104.58289448 255.67876767 -104.58368141 254.91579339 -104.58449218 254.12969868 C-104.59753628 241.78536649 -104.62118462 229.44107633 -104.64877101 217.09676905 C-104.67685295 204.42476432 -104.69349477 191.75278157 -104.69957811 179.08074701 C-104.70368877 171.26516532 -104.71665904 163.44970245 -104.74106202 155.63415734 C-104.75883576 149.63517143 -104.76067121 143.63628714 -104.75663567 137.63727188 C-104.75745996 135.18070241 -104.7634135 132.72412837 -104.77492905 130.26758575 C-104.78990419 126.90780012 -104.78624754 123.54851855 -104.77807617 120.1887207 C-104.7868147 119.22176635 -104.79555322 118.254812 -104.80455655 117.25855601 C-104.73737343 107.00463769 -102.08652695 98.16438159 -95.41731262 90.26742554 C-86.39071278 81.37939192 -75.79348663 79.84661081 -63.64645386 79.88554382 C-60.840553 79.91625425 -58.03540854 79.9663051 -55.22981262 80.01742554 C-53.30470103 80.03752437 -51.37956913 80.05576914 -49.454422 80.07211304 C-44.77487758 80.1158334 -40.09632289 80.18467316 -35.41731262 80.26742554 C-35.42619507 79.61533615 -35.43507751 78.96324677 -35.44422913 78.29139709 C-35.53320807 71.46114938 -35.59325556 64.63106821 -35.63703918 57.80038452 C-35.65706697 55.25637109 -35.68429726 52.71240319 -35.71907043 50.16854858 C-35.76797693 46.4969657 -35.79037083 42.82599521 -35.80793762 39.15414429 C-35.82858276 38.02973434 -35.84922791 36.9053244 -35.87049866 35.74684143 C-35.87327295 25.82694103 -33.6232689 15.56459645 -26.41731262 8.26742554 C-18.02798928 1.44221333 -10.55168182 -0.03400381 0 0 Z M46.58268738 397.26742554 C46.33518738 399.12367554 46.08768738 400.97992554 45.83268738 402.89242554 C44.98319049 407.90091758 44.11399491 411.44184238 40.58268738 415.26742554 C32.72915012 420.32859399 22.90418479 419.53488234 13.8815155 419.78500366 C12.51736511 419.8362439 12.51736511 419.8362439 11.12565613 419.88851929 C10.30089783 419.91357544 9.47613953 419.93863159 8.62638855 419.96444702 C6.35986412 420.09307083 6.35986412 420.09307083 4.58268738 422.26742554 C5.43648987 422.30500977 5.43648987 422.30500977 6.30754089 422.34335327 C8.92026051 422.46036448 11.532711 422.58260833 14.14518738 422.70492554 C15.04044128 422.74424194 15.93569519 422.78355835 16.858078 422.82406616 C30.7160316 423.48396871 30.7160316 423.48396871 33.53581238 426.03305054 C34.78958102 428.70900451 34.75849931 430.11079625 34.33268738 433.01742554 C34.22440613 433.81664429 34.11612488 434.61586304 34.00456238 435.43930054 C33.86534363 436.37258179 33.72612488 437.30586304 33.58268738 438.26742554 C33.25268738 440.90742554 32.92268738 443.54742554 32.58268738 446.26742554 C49.41268738 444.28742554 49.41268738 444.28742554 66.58268738 442.26742554 C66.58268738 427.41742554 66.58268738 412.56742554 66.58268738 397.26742554 C59.98268738 397.26742554 53.38268738 397.26742554 46.58268738 397.26742554 Z M162.58268738 397.26742554 C162.58268738 412.11742554 162.58268738 426.96742554 162.58268738 442.26742554 C175.12268738 443.58742554 187.66268738 444.90742554 200.58268738 446.26742554 C200.25268738 430.09742554 199.92268738 413.92742554 199.58268738 397.26742554 C187.37268738 397.26742554 175.16268738 397.26742554 162.58268738 397.26742554 Z " fill="#D0D9FD" transform="translate(139.4173126220703,14.732574462890625)"/>
<path d="M0 0 C5.78084876 -0.09237042 11.55908617 -0.17184284 17.34008789 -0.21972656 C19.30209074 -0.23970918 21.26403505 -0.26690484 23.22583008 -0.30175781 C48.8404122 -0.74507458 48.8404122 -0.74507458 58.375 8.1875 C67.66654894 17.2283246 69.98729689 26.85789632 70.21911073 39.54682958 C70.2577572 43.96203508 70.24464616 48.37646625 70.22705078 52.79174805 C70.22648588 54.78349298 70.22680477 56.77523834 70.22793579 58.76698303 C70.22850721 64.14636231 70.21678711 69.52565154 70.20278788 74.90500998 C70.19024529 80.53707654 70.18910724 86.16914539 70.18673706 91.80122375 C70.18053264 102.45400019 70.1641359 113.10673535 70.14403808 123.75949365 C70.12164673 135.892523 70.11067752 148.02555437 70.10064721 160.15859926 C70.07976873 185.10575568 70.04461299 210.05287552 70 235 C71.10698242 235.13792969 72.21396484 235.27585937 73.35449219 235.41796875 C77.05993209 236.00956858 78.4909102 236.57738456 81.25 239 C81.89453125 239.53625 82.5390625 240.0725 83.203125 240.625 C88.25987764 247.30870784 88.61575613 255.66095229 89.125 263.75 C89.20282715 264.86963135 89.2806543 265.9892627 89.36083984 267.14282227 C91.64147061 301.73717005 91.42865444 336.28679716 89.125 370.875 C89.02566162 372.53112305 89.02566162 372.53112305 88.92431641 374.22070312 C88.32524422 382.4518783 87.08275991 389.91724009 81 396 C76.56120006 398.59469209 72.7773272 399.5531093 67.6875 400.125 C66.45386719 400.27195312 65.22023438 400.41890625 63.94921875 400.5703125 C62.30026021 400.72226977 60.65036329 400.86414601 59 401 C57.93249512 401.08902588 56.86499023 401.17805176 55.76513672 401.26977539 C42.18108323 402.23244517 28.57807941 402.1873722 14.96679688 402.18530273 C12.17701648 402.1852221 9.38740251 402.19207808 6.59765625 402.20581055 C-8.33028961 402.27789833 -23.20695102 402.11290485 -38.109375 401.17578125 C-39.3074176 401.10642868 -40.50546021 401.03707611 -41.73980713 400.96562195 C-48.91196773 400.45329242 -53.8976055 399.28196844 -60.17871094 395.78808594 C-62.45032525 394.80514076 -63.71630867 394.9668399 -66.140625 395.390625 C-66.95136475 395.52227051 -67.76210449 395.65391602 -68.59741211 395.78955078 C-69.47276611 395.94149902 -70.34812012 396.09344727 -71.25 396.25 C-79.13246642 397.49340417 -86.98378075 398.47159317 -94.9375 399.125 C-95.8150293 399.20008789 -96.69255859 399.27517578 -97.59667969 399.35253906 C-115.26440745 400.75513902 -132.96999923 401.20664444 -150.6875 401.1875 C-152.13160751 401.18709213 -152.13160751 401.18709213 -153.60488892 401.18667603 C-180.91227195 401.15160865 -207.91916033 399.60307666 -235 396 C-234.74875366 395.09592407 -234.74875366 395.09592407 -234.49243164 394.17358398 C-233.85110873 391.34279673 -234.14856308 388.94830208 -234.4375 386.0625 C-235.03037407 379.35846241 -235.09907022 372.72576697 -235 366 C-228.79192967 364.48265787 -222.66982706 363.49696784 -216.3125 362.875 C-215.08950195 362.74544922 -215.08950195 362.74544922 -213.84179688 362.61328125 C-209.49538627 362.17055875 -205.40215779 362 -201 362 C-201 347.15 -201 332.3 -201 317 C-207.6 317 -214.2 317 -221 317 C-221.25 308.5 -221.25 308.5 -221.29785156 305.87304688 C-221.53971426 300.25674043 -222.72515398 295.64553639 -226 291 C-227.92000708 289.37549216 -229.79914542 288.25048556 -232 287 C-232 286.67 -232 286.34 -232 286 C-177.55 286 -123.1 286 -67 286 C-67 280.39 -67 274.78 -67 269 C-66.95208027 265.44914794 -66.88479006 261.92056464 -66.75 258.375 C-66.73582031 257.55644531 -66.72164062 256.73789062 -66.70703125 255.89453125 C-66.42176055 248.78558532 -64.2636233 244.61187304 -59.5625 239.1875 C-54.28507382 234.68238009 -48.28963819 234.30143458 -41.625 233.4375 C-40.72394531 233.31181641 -39.82289063 233.18613281 -38.89453125 233.05664062 C-21.63734922 230.75166037 -4.43723828 230.87730119 12.9375 230.9375 C15.47070224 230.94252523 18.00390545 230.94708633 20.53710938 230.95117188 C26.69142761 230.96209596 32.8457092 230.97875289 39 231 C38.96285268 205.92219037 38.90302043 180.84452396 38.81609726 155.76683521 C38.77626865 144.12311887 38.74389557 132.4794705 38.72900391 120.83569336 C38.71600721 110.68831872 38.68909327 100.54109339 38.64538693 90.39380282 C38.62272756 85.01964553 38.607092 79.64567269 38.60811615 74.27146339 C38.60886012 69.21447657 38.59101543 64.15789818 38.55883217 59.101017 C38.55030414 57.24385757 38.54860285 55.38665247 38.55419731 53.52948189 C38.56081517 50.99527436 38.54297082 48.46237474 38.51898193 45.92829895 C38.52674235 45.19191014 38.53450277 44.45552132 38.54249835 43.6968177 C38.46127845 38.8562942 37.41048793 36.4168256 34 33 C30.56012584 30.56211178 27.18202113 30.69106833 23.046875 30.5859375 C21.83870117 30.55032715 20.63052734 30.5147168 19.38574219 30.47802734 C17.85594727 30.44402832 16.32615234 30.4100293 14.75 30.375 C9.8825 30.25125 5.015 30.1275 0 30 C0 20.1 0 10.2 0 0 Z M-105 317 C-105 331.85 -105 346.7 -105 362 C-92.46 363.32 -79.92 364.64 -67 366 C-67.33 349.83 -67.66 333.66 -68 317 C-80.21 317 -92.42 317 -105 317 Z " fill="#8A9AE9" transform="translate(407,95)"/>
<path d="M0 0 C1.97328915 0.02009757 3.94659808 0.03834257 5.91992188 0.0546875 C10.71834314 0.09499343 15.5139767 0.17332586 20.3125 0.25 C20.3125 10.48 20.3125 20.71 20.3125 31.25 C17.98832031 31.26417969 15.66414063 31.27835938 13.26953125 31.29296875 C11.00888728 31.3236172 8.74853468 31.36269815 6.48803711 31.40258789 C4.92173631 31.42572882 3.35528078 31.44015448 1.78881836 31.44555664 C-0.46858703 31.45487588 -2.72357221 31.49592233 -4.98046875 31.54296875 C-5.67649704 31.5390361 -6.37252533 31.53510345 -7.08964539 31.53105164 C-10.58703033 31.63509332 -12.51971503 32.12923933 -15.37388706 34.18348598 C-18.60903805 38.47142701 -18.37735848 41.73504215 -18.30223083 46.97364807 C-18.30791409 47.95923405 -18.31359735 48.94482003 -18.31945282 49.96027225 C-18.33238276 53.26634205 -18.30954172 56.57119408 -18.28686523 59.87719727 C-18.28872879 62.24580136 -18.29276433 64.6144046 -18.29881287 66.98300171 C-18.3077658 72.75035109 -18.29354167 78.51730517 -18.2686746 84.28460068 C-18.24074275 91.00005467 -18.23940161 97.71543472 -18.23923159 104.43093716 C-18.23804432 116.41196275 -18.21307376 128.39282056 -18.17456055 140.3737793 C-18.1372073 152.00140394 -18.11596443 163.62890657 -18.11303711 175.2565918 C-18.11276289 176.33102785 -18.11276289 176.33102785 -18.11248314 177.42716969 C-18.11230417 178.14221847 -18.1121252 178.85726726 -18.1119408 179.59398419 C-18.11157539 181.03366983 -18.11120301 182.47335547 -18.11082363 183.91304111 C-18.11054536 184.97802805 -18.11054536 184.97802805 -18.11026147 186.06452987 C-18.10669159 197.14362691 -18.08824122 208.22270509 -18.06833039 219.30178298 C-18.06130744 223.31808563 -18.05652494 227.33438381 -18.05336904 231.35069127 C-18.04784909 238.31594731 -18.0321879 245.28108223 -18.00518227 252.2462883 C-17.99772831 254.56184867 -17.99366944 256.87742275 -17.99320221 259.19299507 C-17.99194875 262.34655494 -17.97843666 265.4998257 -17.96165466 268.65333557 C-17.96406975 269.57599215 -17.96648483 270.49864872 -17.9689731 271.44926459 C-17.96190751 272.29364362 -17.95484192 273.13802265 -17.94756222 274.00798893 C-17.9456113 274.73586048 -17.94366037 275.46373203 -17.94165033 276.2136603 C-17.64817024 278.56512355 -16.84957949 280.20062788 -15.6875 282.25 C-14.86160873 282.26030746 -14.03571747 282.27061493 -13.18479919 282.28123474 C-5.28934409 282.38040916 2.60605724 282.48306048 10.50142002 282.58933926 C14.5576478 282.6438246 18.61388294 282.69709983 22.67016602 282.74731445 C53.68881363 283.13298847 53.68881363 283.13298847 67.40234375 283.72265625 C68.26710831 283.75975204 69.13187286 283.79684784 70.02284241 283.83506775 C72.45463309 283.95176613 74.88297142 284.09327275 77.3125 284.25 C78.26955841 284.3090451 79.22661682 284.36809021 80.212677 284.42892456 C81.18349213 284.50063873 82.15430725 284.57235291 83.15454102 284.64624023 C84.03457291 284.70891586 84.9146048 284.77159149 85.82130432 284.83616638 C91.54452107 285.7868984 95.26728743 288.90998388 98.75 293.375 C102.10808745 299.55388091 101.57075271 305.55532737 101.625 312.4375 C101.65400391 313.64470703 101.68300781 314.85191406 101.71289062 316.09570312 C101.77288908 324.53702388 100.97499563 330.15662253 95.1875 336.625 C88.04007717 340.66484769 79.21734827 340.60433096 71.1875 340.875 C70.23101562 340.91367187 69.27453125 340.95234375 68.2890625 340.9921875 C65.96371801 341.08520128 63.63835665 341.17103771 61.3125 341.25 C62.53066406 341.31058594 63.74882812 341.37117188 65.00390625 341.43359375 C66.62761277 341.51806403 68.25131022 341.60270872 69.875 341.6875 C71.07479492 341.74647461 71.07479492 341.74647461 72.29882812 341.80664062 C85.34319788 342.49879086 85.34319788 342.49879086 88.8125 345.1875 C91.38482788 350.43933609 89.82095854 355.55773034 88.76953125 361.125 C87.40070335 370.48450702 88.22984535 380.18655057 89.2890625 389.54296875 C89.31423543 392.45044231 88.92831313 393.85925608 87.3125 396.25 C82.5418361 398.63533195 75.88580203 397.98732495 70.56640625 398.296875 C69.81512514 398.34124443 69.06384403 398.38561386 68.28979683 398.43132782 C51.55677636 399.39751639 34.84650474 399.55851887 18.08959961 399.51074219 C14.86133452 399.50161888 11.63329442 399.50163176 8.4050293 399.51074219 C-8.03539674 399.55713322 -24.47475773 399.46401674 -40.89840508 398.65105438 C-42.31646064 398.58266584 -43.73488242 398.52142129 -45.15358162 398.46802521 C-52.92771407 398.16220564 -59.82245686 397.85447036 -65.6875 392.25 C-69.7266223 386.69145144 -70.44466282 380.98609212 -70.6875 374.25 C-70.72746094 373.53070313 -70.76742187 372.81140625 -70.80859375 372.0703125 C-71.05412183 364.1845283 -71.08461901 354.56641352 -66.0625 348.125 C-58.32854465 340.70334214 -47.72303695 341.58071656 -37.6875 341.25 C-39.33298828 341.12044922 -39.33298828 341.12044922 -41.01171875 340.98828125 C-42.46625906 340.84751928 -43.92068067 340.70552705 -45.375 340.5625 C-46.09623047 340.50900391 -46.81746094 340.45550781 -47.56054688 340.40039062 C-51.54938243 339.98147182 -53.41815507 339.45261689 -56.71484375 336.97265625 C-58.6875 334.25 -58.6875 334.25 -58.9921875 331.8203125 C-58.77949219 330.60988281 -58.77949219 330.60988281 -58.5625 329.375 C-58.42714844 328.50101562 -58.29179688 327.62703125 -58.15234375 326.7265625 C-57.99894531 325.90929687 -57.84554687 325.09203125 -57.6875 324.25 C-56.25482909 315.33560325 -56.51624371 307.57001436 -58.22265625 298.7265625 C-58.78441766 295.73364875 -59.1913809 293.27328542 -58.6875 290.25 C-56.4375 287.375 -56.4375 287.375 -53.6875 285.25 C-52.3675 285.25 -51.0475 285.25 -49.6875 285.25 C-49.69026538 283.93986246 -49.69303076 282.62972492 -49.69587994 281.27988625 C-49.76089217 250.16059956 -49.8103409 219.04133086 -49.84069599 187.9219921 C-49.84444798 184.08943342 -49.84833096 180.25687488 -49.85229492 176.42431641 C-49.85308185 175.66134213 -49.85386878 174.89836785 -49.85467956 174.11227314 C-49.86772366 161.76794095 -49.891372 149.42365079 -49.91895839 137.07934351 C-49.94704033 124.40733879 -49.96368215 111.73535603 -49.96976548 99.06332147 C-49.97387615 91.24773978 -49.98684642 83.43227691 -50.0112494 75.61673181 C-50.02902314 69.6177459 -50.03085859 63.6188616 -50.02682304 57.61984634 C-50.02764734 55.16327687 -50.03360087 52.70670284 -50.04511642 50.25016022 C-50.06009157 46.89037458 -50.05643492 43.53109302 -50.04826355 40.17129517 C-50.05700207 39.20434082 -50.0657406 38.23738647 -50.07474393 37.24113047 C-50.00756081 26.98721215 -47.35671432 18.14695605 -40.6875 10.25 C-29.21630711 -1.04510002 -14.98387033 -0.26620133 0 0 Z " fill="#B63319" transform="translate(84.6875,94.75)"/>
<path d="M0 0 C1.30608128 0.5296936 2.61308822 1.05710915 3.92089844 1.58251953 C6.87369189 2.77261339 9.82080036 3.97566314 12.76513672 5.18652344 C18.40221024 7.49908978 24.06174974 9.75434558 29.72265625 12.0078125 C38.30704773 15.42653254 46.88641515 18.8573828 55.4609375 22.30078125 C63.18701797 25.40277588 70.92024411 28.4855335 78.6640625 31.54296875 C81.08269326 32.50041724 83.50115286 33.4582967 85.91955566 34.4163208 C87.41635013 35.00777979 88.91397596 35.59713971 90.41247559 36.18426514 C92.45162863 36.98336759 94.48778366 37.78969022 96.5234375 38.59765625 C97.65056152 39.04117432 98.77768555 39.48469238 99.93896484 39.94165039 C102.60533705 41.15567661 104.68512867 42.23946444 106.8125 44.25 C107.0625 47.4375 107.0625 47.4375 106.8125 50.25 C99.91413898 53.90311663 92.745706 56.79903411 85.50146484 59.67871094 C83.41943684 60.50718766 81.34049882 61.34309932 79.26171875 62.1796875 C77.93767695 62.70877637 76.61346437 63.23743809 75.2890625 63.765625 C74.09361816 64.24290039 72.89817383 64.72017578 71.66650391 65.21191406 C68.8125 66.25 68.8125 66.25 66.8125 66.25 C66.82138245 67.06352936 66.83026489 67.87705872 66.8394165 68.71524048 C66.91968162 76.39516535 66.98052458 84.07488584 67.01974869 91.75512123 C67.04059247 95.70330373 67.06885049 99.65113863 67.11425781 103.59912109 C67.15783152 107.41169001 67.18166124 111.22392532 67.19200897 115.03672409 C67.19937981 116.48876571 67.21377356 117.94078979 67.23542023 119.39268875 C67.26460976 121.43227333 67.26844986 123.47049289 67.26660156 125.51025391 C67.27548401 126.66941315 67.28436646 127.82857239 67.29351807 129.02285767 C66.59778976 133.69048746 64.41839293 136.84647569 60.890625 139.9296875 C59.19791667 141.03645833 57.50520833 142.14322917 55.8125 143.25 C55.1525 142.92 54.4925 142.59 53.8125 142.25 C53.625 139.9375 53.625 139.9375 53.8125 137.25 C54.286875 136.816875 54.76125 136.38375 55.25 135.9375 C57.79294704 133.19111719 57.93194785 129.84748812 57.8125 126.25 C56.05883602 122.00428722 55.04870819 121.3681041 50.8125 119.25 C50.8125 103.41 50.8125 87.57 50.8125 71.25 C47.8425 70.26 44.8725 69.27 41.8125 68.25 C39.14788121 67.29674984 36.48814587 66.33550654 33.83203125 65.359375 C32.33245892 64.81181328 30.83278048 64.26454207 29.33300781 63.7175293 C28.56299438 63.43646332 27.79298096 63.15539734 26.99963379 62.86581421 C12.70082099 57.6523302 -1.61753483 52.66270972 -16.1875 48.25 C-0.53398833 56.31571268 15.37423431 63.66891713 31.4777832 70.77709961 C35.59243578 72.59448734 39.70262445 74.42184067 43.8125 76.25 C43.93611242 82.3005426 44.0268458 88.35035017 44.0871582 94.40185547 C44.11230019 96.46025393 44.14641876 98.51856314 44.18969727 100.57666016 C44.2503627 103.53570569 44.27871261 106.49357103 44.30078125 109.453125 C44.32658768 110.37305237 44.3523941 111.29297974 44.37898254 112.24078369 C44.38180663 118.67624434 44.38180663 118.67624434 41.34448242 121.73730469 C40.50892822 122.23649414 39.67337402 122.73568359 38.8125 123.25 C37.24733882 126.38032236 37.272163 129.84073084 37.8125 133.25 C38.31910156 133.86617187 38.82570313 134.48234375 39.34765625 135.1171875 C41.38678635 138.08616093 40.9210224 139.97872178 40.5 143.5 C40.38011719 144.57765625 40.26023437 145.6553125 40.13671875 146.765625 C39.97623047 147.99539063 39.97623047 147.99539063 39.8125 149.25 C35.17109938 150.93050712 30.53951602 151.97579286 25.6875 152.8125 C25.00429688 152.93818359 24.32109375 153.06386719 23.6171875 153.19335938 C13.4503824 154.97815696 3.19527054 155.41380635 -7.109375 155.48828125 C-8.21186584 155.496353 -9.31435669 155.50442474 -10.45025635 155.51274109 C-12.77297444 155.52647777 -15.09571183 155.53724573 -17.41845703 155.54516602 C-19.74306356 155.55661648 -22.06764527 155.57695628 -24.39208984 155.60668945 C-46.88141252 155.89304518 -82.64572971 156.04896509 -100.3125 139.2265625 C-104.75004641 134.27010945 -106.31382901 131.69906097 -106.30102539 124.96435547 C-106.30117142 124.32032776 -106.30131744 123.67630005 -106.3014679 123.01275635 C-106.3007704 120.88086598 -106.29298566 118.74906263 -106.28515625 116.6171875 C-106.28329149 115.14031014 -106.28186786 113.66343216 -106.28086853 112.18655396 C-106.27704792 108.29687801 -106.26722152 104.40723933 -106.25616455 100.51757812 C-106.24594064 96.54948429 -106.24136881 92.58138445 -106.23632812 88.61328125 C-106.22559885 80.82550384 -106.20852789 73.03775714 -106.1875 65.25 C-107.56152985 65.04145889 -107.56152985 65.04145889 -108.96331787 64.82870483 C-112.75543438 64.14806209 -116.15326942 62.85917512 -119.703125 61.4140625 C-120.40016541 61.13404388 -121.09720581 60.85402527 -121.81536865 60.56552124 C-123.27889871 59.97520548 -124.741144 59.3816954 -126.20214844 58.78515625 C-128.4402033 57.87389931 -130.68451647 56.97949399 -132.9296875 56.0859375 C-134.35457577 55.50882153 -135.77906949 54.93073027 -137.203125 54.3515625 C-137.87394104 54.08582428 -138.54475708 53.82008606 -139.23590088 53.54629517 C-142.6736189 52.12495778 -144.06649443 51.43150836 -146.1875 48.25 C-146.125 45.75 -146.125 45.75 -145.1875 43.25 C-141.20891738 40.44649041 -136.77084174 38.76479247 -132.26171875 37.01171875 C-131.46621109 36.69828522 -130.67070343 36.38485168 -129.85108948 36.06192017 C-127.19402784 35.01623282 -124.53452596 33.97690204 -121.875 32.9375 C-119.99235262 32.19791796 -118.10986948 31.45791769 -116.22753906 30.7175293 C-112.12388396 29.10437316 -108.01914017 27.49402883 -103.91357422 25.88574219 C-96.74391086 23.0769917 -89.57686987 20.26157823 -82.41015625 17.4453125 C-79.89950412 16.45871814 -77.38884573 15.47213975 -74.87817383 14.4855957 C-74.25957206 14.2425171 -73.64097029 13.9994385 -73.00362301 13.74899387 C-68.74992062 12.077683 -64.49557303 10.40802213 -60.2409668 8.73901367 C-59.09544846 8.28913589 -57.94993011 7.83925812 -56.7696991 7.37574768 C-54.54488303 6.50337657 -52.31900571 5.63370636 -50.09199524 4.76695251 C-45.58563064 3.00843967 -41.0982516 1.24057383 -36.67773438 -0.72509766 C-23.17275912 -6.69167497 -13.42139013 -5.6483062 0 0 Z " fill="#255299" transform="translate(275.1875,115.75)"/>
<path d="M0 0 C1.03614762 -0.00453111 2.07229523 -0.00906223 3.13984126 -0.01373065 C6.60496641 -0.02637095 10.06993432 -0.02475449 13.53507996 -0.02310181 C16.02232057 -0.02908726 18.50955934 -0.03589284 20.99679565 -0.04345703 C27.04782746 -0.05928781 33.09879766 -0.06556532 39.14984445 -0.06668179 C44.07045945 -0.06763354 48.99106164 -0.07175015 53.91167259 -0.07808304 C67.87539764 -0.09568765 81.839092 -0.10492309 95.80282823 -0.10342209 C96.55494005 -0.10334218 97.30705187 -0.10326227 98.08195496 -0.10317993 C99.21150676 -0.10305729 99.21150676 -0.10305729 100.3638778 -0.10293217 C112.56553213 -0.10211941 124.76706298 -0.12125655 136.96868161 -0.14945666 C149.50983792 -0.17821185 162.05093406 -0.19199552 174.59212416 -0.19026911 C181.6279956 -0.18960614 188.66373757 -0.19505779 195.69957924 -0.21662521 C202.31768413 -0.23678282 208.93556273 -0.23613643 215.55369759 -0.22159195 C217.97963104 -0.21950196 220.40558156 -0.224216 222.83148575 -0.23631287 C226.14945171 -0.25178361 229.46647763 -0.24244411 232.78442383 -0.22705078 C234.21602025 -0.24248147 234.21602025 -0.24248147 235.67653781 -0.25822389 C245.26114457 -0.16031447 252.9368235 2.89487481 259.89518738 9.47445679 C273.55592683 23.98899245 267.58268738 42.49105237 267.58268738 62.26742554 C167.59268738 62.26742554 67.60268738 62.26742554 -35.41731262 62.26742554 C-35.41731262 17.38134959 -35.41731262 17.38134959 -26.41731262 8.26742554 C-18.02798928 1.44221333 -10.55168182 -0.03400381 0 0 Z " fill="#B53117" transform="translate(139.4173126220703,14.732574462890625)"/>
<path d="M0 0 C1.39120471 0.00015906 2.78241534 0.00585033 4.17358398 0.01586914 C4.90463852 0.01728409 5.63569305 0.01869904 6.38890076 0.02015686 C8.73253406 0.02577131 11.07607313 0.03832617 13.41967773 0.05102539 C15.00496282 0.05603853 16.59024939 0.06060176 18.17553711 0.06469727 C22.06945383 0.07574542 25.96329979 0.09301967 29.85717773 0.11352539 C29.85864429 1.17720557 29.86011086 2.24088575 29.86162186 3.33679867 C29.89822822 29.22684892 29.95769283 55.11676993 30.04108047 81.00671291 C30.08087789 93.52693838 30.11326687 106.04710093 30.12817383 118.56738281 C30.14118663 129.48095208 30.16814201 140.39438294 30.2117908 151.30787426 C30.23441373 157.08569133 30.2500879 162.86333764 30.24906158 168.64120293 C30.24831548 174.08231239 30.26624682 179.52304425 30.29834557 184.96405602 C30.30684656 186.95821663 30.30859315 188.95241959 30.30298042 190.94659042 C30.29632206 193.67641548 30.31430483 196.40504555 30.3381958 199.13475037 C30.33043538 199.91785204 30.32267497 200.70095371 30.31467938 201.50778574 C30.44815203 210.16453072 34.11160843 217.11252906 39.92358398 223.38696289 C46.54424499 229.29874504 53.76941372 230.26137564 62.34857178 230.27174377 C63.64614265 230.27915074 63.64614265 230.27915074 64.96992707 230.28670734 C67.87342275 230.30208604 70.7768963 230.310444 73.68041992 230.31884766 C75.75980321 230.32842588 77.83918455 230.33843593 79.91856384 230.34884644 C85.56896076 230.37590753 91.21936604 230.3969106 96.86979198 230.41684842 C102.77284969 230.43870052 108.67588157 230.46609301 114.57891846 230.49290466 C125.75959201 230.54284204 136.94027988 230.58777701 148.12098145 230.63092703 C160.8487814 230.68029046 173.57655545 230.73521191 186.30433035 230.79060662 C212.48858883 230.90444272 238.67287242 231.01108108 264.85717773 231.11352539 C264.85717773 239.03352539 264.85717773 246.95352539 264.85717773 255.11352539 C243.27306184 255.13670501 221.68894896 255.15453572 200.10482311 255.16533756 C190.08224755 255.17048704 180.05967987 255.17750401 170.03710938 255.18896484 C161.29829109 255.19895292 152.55947852 255.20538862 143.82065469 255.20761389 C139.19640508 255.20891399 134.57217183 255.21195543 129.94792747 255.21925545 C125.5887467 255.22608078 121.2295889 255.22812918 116.87040329 255.22663307 C115.27697817 255.22690649 113.68355223 255.22887275 112.09013176 255.23273087 C104.40981322 255.2504031 96.79704887 255.18552477 89.15235996 254.358325 C75.76116883 252.93004694 62.16693712 253.04883577 48.71324158 252.98423767 C46.40121688 252.97288647 44.08922545 252.95871498 41.77722168 252.94372559 C40.21793645 252.93387957 38.65865096 252.92407345 37.09936523 252.91430664 C36.32256157 252.90939964 35.5457579 252.90449265 34.74541473 252.89943695 C30.7393088 252.8758334 26.73347462 252.86153674 22.72729492 252.86303711 C18.78418713 252.86382169 14.84186606 252.84063374 10.89896393 252.80115509 C9.41103905 252.79071289 7.92302335 252.78915802 6.43508148 252.79680634 C4.3753463 252.80637931 2.318058 252.7853715 0.25854492 252.75708008 C-0.90896301 252.75343445 -2.07647095 252.74978882 -3.27935791 252.74603271 C-6.14282227 252.11352539 -6.14282227 252.11352539 -7.79713821 250.18130112 C-9.68659055 245.87388884 -9.56420363 242.05273321 -9.53723145 237.39660645 C-9.54332255 236.41172603 -9.54941365 235.42684562 -9.55568933 234.41212034 C-9.57235157 231.10869577 -9.56753886 227.80565529 -9.56274414 224.50219727 C-9.5700825 222.13521422 -9.57866804 219.76823475 -9.58840942 217.40126038 C-9.61065647 210.96957607 -9.61355456 204.53801976 -9.61166191 198.10630226 C-9.61087319 194.09018221 -9.61577861 190.0740825 -9.62214661 186.05796814 C-9.6242458 184.70847623 -9.6263434 183.35898431 -9.62843943 182.0094924 C-9.62948295 181.33781253 -9.63052648 180.66613266 -9.63160163 179.97409886 C-9.65049985 167.27377116 -9.64945484 154.57350124 -9.64263231 141.87316531 C-9.63705479 130.25318909 -9.65789176 118.63343321 -9.69099277 107.0135085 C-9.72471902 95.08150612 -9.73989961 83.14960933 -9.73527575 71.21755838 C-9.73303026 64.51880413 -9.7387437 57.82028395 -9.76316833 51.12156677 C-9.78537023 44.82434004 -9.7836119 38.52757328 -9.76324081 32.23034477 C-9.75981938 29.91680484 -9.76496824 27.60323433 -9.7792244 25.28973579 C-9.79731968 22.13609676 -9.78473925 18.98403442 -9.76428223 15.83044434 C-9.77680007 14.9107006 -9.78931792 13.99095687 -9.8022151 13.04334211 C-9.73874813 8.49315161 -9.63183805 6.71479911 -6.66648102 3.06871796 C-5.83367363 2.42350441 -5.00086624 1.77829086 -4.14282227 1.11352539 C-3.14282227 0.11352539 -3.14282227 0.11352539 0 0 Z " fill="#FEFEFE" transform="translate(75.142822265625,125.886474609375)"/>
<path d="M0 0 C54.12 0 108.24 0 164 0 C164 10.23 164 20.46 164 31 C151.79 31 139.58 31 127 31 C127 45.85 127 60.7 127 76 C129.97 76 132.94 76 136 76 C138.15715218 76.16657364 140.31193079 76.37044964 142.4609375 76.62109375 C143.59144531 76.75193359 144.72195313 76.88277344 145.88671875 77.01757812 C147.03785156 77.15615234 148.18898438 77.29472656 149.375 77.4375 C150.54933594 77.57220703 151.72367188 77.70691406 152.93359375 77.84570312 C161.59492846 78.86497615 161.59492846 78.86497615 165 80 C165.05945801 80.84594727 165.05945801 80.84594727 165.12011719 81.70898438 C165.31272589 84.30760566 165.53119035 86.90345877 165.75 89.5 C165.811875 90.386875 165.87375 91.27375 165.9375 92.1875 C166.48039535 98.34031399 167.91881387 102.63923714 171 108 C119.52460616 124.67917789 49.78090326 117.02244253 -3 110 C-2.83250244 109.39728271 -2.66500488 108.79456543 -2.49243164 108.17358398 C-1.85110873 105.34279673 -2.14856308 102.94830208 -2.4375 100.0625 C-3.03037407 93.35846241 -3.09907022 86.72576697 -3 80 C3.20807033 78.48265787 9.33017294 77.49696784 15.6875 76.875 C16.91049805 76.74544922 16.91049805 76.74544922 18.15820312 76.61328125 C22.50461373 76.17055875 26.59784221 76 31 76 C31 61.15 31 46.3 31 31 C24.4 31 17.8 31 11 31 C10.75 22.5 10.75 22.5 10.70214844 19.87304688 C10.46028574 14.25674043 9.27484602 9.64553639 6 5 C4.07999292 3.37549216 2.20085458 2.25048556 0 1 C0 0.67 0 0.34 0 0 Z " fill="#51504F" transform="translate(175,381)"/>
<path d="M0 0 C5.78084876 -0.09237042 11.55908617 -0.17184284 17.34008789 -0.21972656 C19.30209074 -0.23970918 21.26403505 -0.26690484 23.22583008 -0.30175781 C48.8404122 -0.74507458 48.8404122 -0.74507458 58.375 8.1875 C67.66654894 17.2283246 69.98729689 26.85789632 70.21911073 39.54682958 C70.2577572 43.96203508 70.24464616 48.37646625 70.22705078 52.79174805 C70.22648588 54.78349298 70.22680477 56.77523834 70.22793579 58.76698303 C70.22850721 64.14636231 70.21678711 69.52565154 70.20278788 74.90500998 C70.19024529 80.53707654 70.18910724 86.16914539 70.18673706 91.80122375 C70.18053264 102.45400019 70.1641359 113.10673535 70.14403808 123.75949365 C70.12164673 135.892523 70.11067752 148.02555437 70.10064721 160.15859926 C70.07976873 185.10575568 70.04461299 210.05287552 70 235 C71.10698242 235.13792969 72.21396484 235.27585937 73.35449219 235.41796875 C77.05993209 236.00956858 78.4909102 236.57738456 81.25 239 C81.89453125 239.53625 82.5390625 240.0725 83.203125 240.625 C88.25987764 247.30870784 88.61575613 255.66095229 89.125 263.75 C89.20282715 264.86963135 89.2806543 265.9892627 89.36083984 267.14282227 C91.64147061 301.73717005 91.42865444 336.28679716 89.125 370.875 C89.02566162 372.53112305 89.02566162 372.53112305 88.92431641 374.22070312 C88.32524422 382.4518783 87.08275991 389.91724009 81 396 C76.56120006 398.59469209 72.7773272 399.5531093 67.6875 400.125 C66.99672363 400.20282715 66.30594727 400.2806543 65.59423828 400.36083984 C53.07941155 401.70503537 40.58266961 402.17946755 28 402 C28 401.67 28 401.34 28 401 C29.53539429 400.89510254 29.53539429 400.89510254 31.10180664 400.78808594 C34.9256306 400.52221017 38.74744907 400.23344301 42.5690918 399.93798828 C44.21837692 399.8136419 45.86813302 399.6953781 47.51831055 399.58349609 C49.90044781 399.42089778 52.27999218 399.23595922 54.66015625 399.046875 C55.38960953 399.0018988 56.11906281 398.95692261 56.87062073 398.9105835 C62.62742368 398.41925462 67.6290886 396.77214256 71.5234375 392.21875 C73.75016233 387.724443 75.01796825 383.94736593 75.38891602 378.97729492 C75.44887253 378.18647522 75.50882904 377.39565552 75.57060242 376.58087158 C75.63109268 375.72273865 75.69158295 374.86460571 75.75390625 373.98046875 C75.81935135 373.07101501 75.88479645 372.16156128 75.95222473 371.22454834 C78.37988401 336.65165177 79.32680087 302.15179163 76.6875 267.5625 C76.59949127 266.36897415 76.59949127 266.36897415 76.50970459 265.15133667 C75.95610266 251.41182634 75.95610266 251.41182634 69.125 240.125 C64.75751826 237.15511241 60.91572303 235.81956671 55.69921875 235.1484375 C54.72275391 235.01953125 53.74628906 234.890625 52.74023438 234.7578125 C51.73283203 234.63148438 50.72542969 234.50515625 49.6875 234.375 C48.66076172 234.2409375 47.63402344 234.106875 46.57617188 233.96875 C44.05148034 233.63995296 41.52616521 233.31724083 39 233 C38.99853344 231.99963117 38.99706688 230.99926233 38.99555588 229.96857929 C38.95897982 205.64047955 38.89955513 181.31251768 38.81609726 156.98453236 C38.77626818 145.21974772 38.74389534 133.45503035 38.72900391 121.69018555 C38.71600745 111.43733628 38.68909415 101.18463479 38.64538693 90.93186873 C38.622727 85.50182054 38.60709204 80.07195491 38.60811615 74.64185524 C38.60886008 69.53234052 38.59101672 64.42323005 38.55883217 59.31381989 C38.55030372 57.43730957 38.54860312 55.56075407 38.55419731 53.68423271 C38.56081453 51.12375562 38.54297225 48.56457336 38.51898193 46.00422668 C38.52674235 45.26005597 38.53450277 44.51588526 38.54249835 43.74916393 C38.46175068 38.88764294 37.43142851 36.42998021 34 33 C30.56012584 30.56211178 27.18202113 30.69106833 23.046875 30.5859375 C21.83870117 30.55032715 20.63052734 30.5147168 19.38574219 30.47802734 C17.85594727 30.44402832 16.32615234 30.4100293 14.75 30.375 C9.8825 30.25125 5.015 30.1275 0 30 C0 20.1 0 10.2 0 0 Z " fill="#51504F" transform="translate(407,95)"/>
<path d="M0 0 C7.71023528 2.13475394 15.06898896 4.8953023 22.48046875 7.89453125 C23.65152664 8.36436935 24.82258453 8.83420746 26.02912903 9.31828308 C29.12343215 10.56062529 32.21619048 11.80666464 35.30822754 13.05462646 C38.41063256 14.30576525 41.51498283 15.55204432 44.61914062 16.79882812 C45.82273224 17.28286102 47.02632385 17.76689392 48.26638794 18.26559448 C50.64484467 19.22082373 53.02429084 20.17359329 55.40475464 21.12380981 C60.16487472 23.02800239 64.91309511 24.93143238 69.58837891 27.03662109 C81.11871471 32.18342593 90.65122023 32.68646064 102.42578125 28.18359375 C105.40761828 26.97893109 108.36004686 25.71213728 111.3125 24.4375 C112.79006753 23.81999212 114.26858315 23.20474784 115.74804688 22.59179688 C120.96675421 20.42120824 126.16785769 18.20968332 131.36566162 15.98956299 C133.6928489 14.99811655 136.02376687 14.01592917 138.35546875 13.03515625 C139.06439774 12.73008652 139.77332672 12.42501678 140.5037384 12.11070251 C143.95637461 10.66529156 146.19360621 10 150 10 C150.12361242 16.0505426 150.2143458 22.10035017 150.2746582 28.15185547 C150.29980019 30.21025393 150.33391876 32.26856314 150.37719727 34.32666016 C150.4378627 37.28570569 150.46621261 40.24357103 150.48828125 43.203125 C150.51408768 44.12305237 150.5398941 45.04297974 150.56648254 45.99078369 C150.56930663 52.42624434 150.56930663 52.42624434 147.53198242 55.48730469 C146.69642822 55.98649414 145.86087402 56.48568359 145 57 C143.43483882 60.13032236 143.459663 63.59073084 144 67 C144.50660156 67.61617188 145.01320313 68.23234375 145.53515625 68.8671875 C147.57428635 71.83616093 147.1085224 73.72872178 146.6875 77.25 C146.56761719 78.32765625 146.44773437 79.4053125 146.32421875 80.515625 C146.21722656 81.33546875 146.11023438 82.1553125 146 83 C141.35859938 84.68050712 136.72701602 85.72579286 131.875 86.5625 C130.85019531 86.75102539 130.85019531 86.75102539 129.8046875 86.94335938 C119.6378824 88.72815696 109.38277054 89.16380635 99.078125 89.23828125 C97.97563416 89.246353 96.87314331 89.25442474 95.73724365 89.26274109 C93.41452556 89.27647777 91.09178817 89.28724573 88.76904297 89.29516602 C86.44443644 89.30661648 84.11985473 89.32695628 81.79541016 89.35668945 C59.30608748 89.64304518 23.54177029 89.79896509 5.875 72.9765625 C1.47117454 68.05777358 -0.12642592 65.48862462 -0.11352539 58.80615234 C-0.11344986 57.50495453 -0.11337433 56.20375671 -0.11329651 54.86312866 C-0.10818947 53.43739789 -0.10297347 52.0116675 -0.09765625 50.5859375 C-0.09579147 49.13148039 -0.09436785 47.67702266 -0.09336853 46.2225647 C-0.08954805 42.39207224 -0.07972176 38.56161763 -0.06866455 34.73114014 C-0.05844035 30.82336947 -0.05386874 26.91559269 -0.04882812 23.0078125 C-0.03809908 15.3385244 -0.02102828 7.6692675 0 0 Z " fill="#4269C3" transform="translate(169,182)"/>
<path d="M0 0 C1.97328915 0.02009757 3.94659808 0.03834257 5.91992188 0.0546875 C10.71834314 0.09499343 15.5139767 0.17332586 20.3125 0.25 C20.3125 10.48 20.3125 20.71 20.3125 31.25 C17.98832031 31.26417969 15.66414063 31.27835938 13.26953125 31.29296875 C11.00888728 31.3236172 8.74853468 31.36269815 6.48803711 31.40258789 C4.92173631 31.42572882 3.35528078 31.44015448 1.78881836 31.44555664 C-0.46858703 31.45487588 -2.72357221 31.49592233 -4.98046875 31.54296875 C-5.67649704 31.5390361 -6.37252533 31.53510345 -7.08964539 31.53105164 C-10.58750542 31.63510746 -12.51944186 32.12897116 -15.37346649 34.18432713 C-18.60687731 38.46800746 -18.38025448 41.72573948 -18.30895996 46.96018982 C-18.31534878 47.94436467 -18.3217376 48.92853952 -18.32832003 49.94253784 C-18.34359361 53.24392391 -18.32309209 56.54411449 -18.30273438 59.84545898 C-18.30623486 62.21081948 -18.31189262 64.57617763 -18.31954956 66.94152832 C-18.33381814 73.3692719 -18.31671474 79.79658875 -18.29326439 86.22429156 C-18.27305791 92.26549085 -18.27840019 98.30669212 -18.28074223 104.3479159 C-18.28443231 116.31998912 -18.26360871 128.29189634 -18.22949219 140.26391602 C-18.1964083 151.877891 -18.18223266 163.49169173 -18.18847656 175.10571289 C-18.19524332 187.75446268 -18.1927717 200.40313949 -18.17311716 213.05187851 C-18.17207768 213.72100972 -18.17103819 214.39014092 -18.1699672 215.07954882 C-18.16787632 216.42342448 -18.16576535 217.76730011 -18.16363403 219.1111757 C-18.15674293 223.7862018 -18.15613927 228.46119738 -18.15751648 233.13622856 C-18.15839492 239.43093118 -18.14418964 245.72542531 -18.11828995 252.02007294 C-18.11112277 254.33156639 -18.10904716 256.643082 -18.11240768 258.95458412 C-18.11611743 262.10755839 -18.10139177 265.25992258 -18.08190918 268.41282654 C-18.08723711 269.32965743 -18.09256503 270.24648832 -18.09805441 271.19110197 C-18.08899777 272.0394631 -18.07994113 272.88782423 -18.07061005 273.76189327 C-18.06903884 274.48900538 -18.06746764 275.2161175 -18.06584883 275.96526331 C-17.67745627 279.0077856 -17.67745627 279.0077856 -14.6875 284.25 C-26.2375 284.58 -37.7875 284.91 -49.6875 285.25 C-49.75535837 252.80733978 -49.80905003 220.36470694 -49.84069599 187.9219921 C-49.84444798 184.08943342 -49.84833096 180.25687488 -49.85229492 176.42431641 C-49.85308185 175.66134213 -49.85386878 174.89836785 -49.85467956 174.11227314 C-49.86772366 161.76794095 -49.891372 149.42365079 -49.91895839 137.07934351 C-49.94704033 124.40733879 -49.96368215 111.73535603 -49.96976548 99.06332147 C-49.97387615 91.24773978 -49.98684642 83.43227691 -50.0112494 75.61673181 C-50.02902314 69.6177459 -50.03085859 63.6188616 -50.02682304 57.61984634 C-50.02764734 55.16327687 -50.03360087 52.70670284 -50.04511642 50.25016022 C-50.06009157 46.89037458 -50.05643492 43.53109302 -50.04826355 40.17129517 C-50.05700207 39.20434082 -50.0657406 38.23738647 -50.07474393 37.24113047 C-50.00756081 26.98721215 -47.35671432 18.14695605 -40.6875 10.25 C-29.21630711 -1.04510002 -14.98387033 -0.26620133 0 0 Z " fill="#525150" transform="translate(84.6875,94.75)"/>
<path d="M0 0 C32 0 32 0 38 5 C39.52458431 8.04916862 39.13332946 11.22286458 39.12025452 14.5675354 C39.12110894 15.35736986 39.12196337 16.14720431 39.12284368 16.96097314 C39.12449793 19.62195399 39.11897801 22.28287256 39.11352539 24.94384766 C39.11324348 26.8455963 39.11340133 28.74734505 39.1139679 30.64909363 C39.11425572 35.82443945 39.10836136 40.99976226 39.10139394 46.17510271 C39.09515796 51.57900407 39.09455641 56.9829059 39.09336853 62.3868103 C39.09025594 72.62550495 39.08204352 82.86418897 39.07201904 93.10287893 C39.06085567 104.75687385 39.05534689 116.41086927 39.05032361 128.06486821 C39.03986085 152.04325273 39.02151626 176.02162267 39 200 C26.13 199.67 13.26 199.34 0 199 C0 133.33 0 67.66 0 0 Z " fill="#FEFEFE" transform="translate(407,126)"/>
<path d="M0 0 C3.21262287 0.00008086 6.42510191 -0.00681138 9.63769531 -0.02050781 C73.54870151 -0.2886978 73.54870151 -0.2886978 89.97070312 5.18530273 C90.03016113 6.03125 90.03016113 6.03125 90.09082031 6.89428711 C90.28342902 9.4929084 90.50189347 12.08876151 90.72070312 14.68530273 C90.78257812 15.57217773 90.84445312 16.45905273 90.90820312 17.37280273 C91.45109848 23.52561672 92.889517 27.82453988 95.97070312 33.18530273 C44.49530928 49.86448063 -25.24839361 42.20774527 -78.02929688 35.18530273 C-77.86179932 34.58258545 -77.69430176 33.97986816 -77.52172852 33.35888672 C-76.8804056 30.52809946 -77.17785995 28.13360482 -77.46679688 25.24780273 C-78.05967095 18.54376514 -78.12836709 11.91106971 -78.02929688 5.18530273 C-72.08728945 3.75014945 -66.23525596 2.72774244 -60.15429688 2.12280273 C-59.44789063 2.04481445 -58.74148437 1.96682617 -58.01367188 1.88647461 C-38.72874354 -0.10454615 -19.36213792 -0.00255695 0 0 Z " fill="#2D2D2D" transform="translate(250.029296875,455.814697265625)"/>
<path d="M0 0 C2.97624351 0.01080911 5.95244168 0.01041151 8.9287014 0.01002693 C18.38582597 0.01021328 27.84135928 0.07117549 37.29766846 0.19561768 C38.39636135 0.20987415 38.39636135 0.20987415 39.51725006 0.22441864 C43.86927641 0.28425824 48.22022893 0.36469636 52.57135201 0.47189903 C54.55814056 0.5185238 56.54521756 0.55230253 58.53227234 0.58570862 C60.32955528 0.63757576 60.32955528 0.63757576 62.16314697 0.69049072 C63.20729263 0.71548141 64.25143829 0.74047211 65.32722473 0.76622009 C69.63848116 1.38944115 73.03460589 2.95257989 76.14556885 6.01422119 C78.56284435 10.59111389 77.76543988 16.07778977 77.73516846 21.13311768 C77.75514893 22.31325439 77.77512939 23.49339111 77.79571533 24.70928955 C77.79474854 26.41761963 77.79474854 26.41761963 77.79376221 28.16046143 C77.79561523 29.19807617 77.79746826 30.23569092 77.79937744 31.30474854 C77.17387858 34.90890039 75.80341465 36.58060844 73.29766846 39.19561768 C56.31341411 47.68774485 24.99755523 42.35245684 6.09991455 42.32598877 C1.99120774 42.32028252 -2.11743444 42.32368716 -6.22613907 42.32942581 C-51.11929951 42.38278422 -51.11929951 42.38278422 -62.70233154 40.19561768 C-62.55795654 39.50339111 -62.41358154 38.81116455 -62.26483154 38.09796143 C-60.3164663 27.82845297 -59.78988623 17.75637626 -61.71893311 7.44976807 C-61.90216125 6.4643251 -62.0853894 5.47888214 -62.27416992 4.46357727 C-62.41546326 3.7151506 -62.55675659 2.96672394 -62.70233154 2.19561768 C-41.76539479 0.47630365 -20.9988809 -0.09577531 0 0 Z " fill="#FEFEFD" transform="translate(98.70233154296875,385.80438232421875)"/>
<path d="M0 0 C1.83014946 -0.00067653 3.66029884 -0.00164943 5.490448 -0.00289917 C9.30418768 -0.004362 13.11790372 -0.00226911 16.93164062 0.00244141 C21.75231431 0.0081141 26.57293253 0.00477126 31.39360428 -0.00099564 C77.12059696 -0.04759059 77.12059696 -0.04759059 97.6171875 2.1328125 C97.38660645 3.16801025 97.38660645 3.16801025 97.15136719 4.22412109 C94.53841719 16.31200039 95.20176875 28.08103761 97.6171875 40.1328125 C89.18047298 40.9127827 80.76431176 41.40341286 72.296875 41.68359375 C70.42042801 41.74635246 70.42042801 41.74635246 68.506073 41.81037903 C54.25251427 42.2525092 40.0017097 42.33220066 25.7421875 42.3203125 C24.7367584 42.31991219 24.7367584 42.31991219 23.71101761 42.31950378 C-8.58900109 42.30340606 -8.58900109 42.30340606 -24.4453125 41.3828125 C-26.2404126 41.29036255 -26.2404126 41.29036255 -28.07177734 41.19604492 C-32.61131867 40.86471414 -35.61528248 40.58862174 -39.56640625 38.2421875 C-43.72819787 33.40913917 -42.68268853 26.86096276 -42.7578125 20.8203125 C-42.79519531 19.69173828 -42.83257812 18.56316406 -42.87109375 17.40039062 C-42.96988544 8.07555259 -42.96988544 8.07555259 -39.984375 4.40234375 C-31.28869885 -3.18352389 -11.17195957 -0.01484027 0 0 Z " fill="#FDFCFD" transform="translate(67.3828125,443.8671875)"/>
<path d="M0 0 C1.73677585 -0.00067482 3.47355162 -0.00164634 5.21032715 -0.00289917 C8.83798122 -0.00436774 12.46561054 -0.00224872 16.09326172 0.00244141 C20.72299927 0.00813817 25.35267882 0.00485465 29.98241425 -0.00113106 C33.5650882 -0.00475943 37.1477486 -0.00358765 40.73042297 -0.00100327 C42.4367117 -0.00034029 44.14300169 -0.00114022 45.84928894 -0.00348282 C67.94676059 -0.02716944 67.94676059 -0.02716944 72.65625 2.4453125 C76.97618863 7.30524345 75.38171644 15.90085783 75.40625 21.9453125 C75.426875 23.20408203 75.4475 24.46285156 75.46875 25.75976562 C75.51844108 37.5427618 75.51844108 37.5427618 72.15625 43.1328125 C68.76690129 44.82748686 64.90965528 44.29847284 61.18017578 44.30981445 C60.24996613 44.31638565 59.31975647 44.32295685 58.36135864 44.32972717 C55.27475917 44.34948212 52.18820837 44.36112663 49.1015625 44.37109375 C48.04926327 44.37516928 46.99696404 44.3792448 45.91277695 44.38344383 C40.34501083 44.40431226 34.77726944 44.4186116 29.20947266 44.42797852 C23.45003739 44.43905474 17.69098723 44.47346659 11.93168831 44.51315022 C7.51023626 44.53925419 3.08887692 44.54766474 -1.33264542 44.55125999 C-3.45617402 44.55614074 -5.57969809 44.56779675 -7.7031517 44.58629799 C-10.67204367 44.61056081 -13.63992665 44.60974808 -16.60888672 44.6027832 C-17.48903442 44.61559326 -18.36918213 44.62840332 -19.27600098 44.64160156 C-25.23283021 44.5905591 -25.23283021 44.5905591 -28.383255 42.23002625 C-29.96490991 39.9588316 -30.4079583 38.71405561 -30.58203125 35.9765625 C-30.63697754 35.18894531 -30.69192383 34.40132813 -30.74853516 33.58984375 C-30.77995605 32.77902344 -30.81137695 31.96820313 -30.84375 31.1328125 C-30.87645996 30.35292969 -30.90916992 29.57304687 -30.94287109 28.76953125 C-31.01244162 26.38933127 -31.02930779 24.01396735 -31.03125 21.6328125 C-31.04349609 20.84261719 -31.05574219 20.05242187 -31.06835938 19.23828125 C-31.0818637 13.73752144 -30.63619226 8.37107651 -28.84375 3.1328125 C-23.09007427 -2.62086323 -7.90412758 -0.01085177 0 0 Z " fill="#FAAC3E" transform="translate(389.84375,345.8671875)"/>
<path d="M0 0 C31.68 0 63.36 0 96 0 C96 15.18 96 30.36 96 46 C64.32 46 32.64 46 0 46 C0 30.82 0 15.64 0 0 Z " fill="#504F4E" transform="translate(206,411)"/>
<path d="M0 0 C0.74524933 -0.00065586 1.49049866 -0.00131172 2.2583313 -0.00198746 C20.34755598 -0.01478882 38.44137888 0.00101799 56.5 1.1875 C57.46131836 1.24708893 58.42263672 1.30667786 59.41308594 1.36807251 C60.38342773 1.43972626 61.35376953 1.51138 62.35351562 1.58520508 C63.23189087 1.64766922 64.11026611 1.71013336 65.01525879 1.77449036 C70.73493108 2.72520498 74.45718941 5.85056335 77.9375 10.3125 C81.29558745 16.49138091 80.75825271 22.49282737 80.8125 29.375 C80.84150391 30.58220703 80.87050781 31.78941406 80.90039062 33.03320312 C80.96038908 41.47452388 80.16249563 47.09412253 74.375 53.5625 C68.03329172 57.14694381 60.17500414 57.51532772 52.99609375 57.80078125 C52.13173203 57.83810867 51.2673703 57.8754361 50.3768158 57.91389465 C35.01202594 58.47951236 19.62058373 58.37444662 4.24780273 58.37280273 C0.47366517 58.37272173 -3.30035033 58.37963563 -7.07446289 58.39331055 C-25.35047377 58.4581224 -43.62453113 58.47739922 -61.87890625 57.48828125 C-63.10230209 57.43568649 -64.32569794 57.38309174 -65.58616638 57.3289032 C-74.61449178 56.73481472 -74.61449178 56.73481472 -77.76977539 53.75805664 C-79.75045048 50.81541123 -79.97992648 49.75508159 -79.375 46.3125 C-79.23964844 45.43851562 -79.10429688 44.56453125 -78.96484375 43.6640625 C-78.81144531 42.84679687 -78.65804687 42.02953125 -78.5 41.1875 C-77.06732909 32.27310325 -77.32874371 24.50751436 -79.03515625 15.6640625 C-79.59691766 12.67114875 -80.0038809 10.21078542 -79.5 7.1875 C-76.97641677 4.07816818 -75.3805111 2.40417728 -71.44726562 1.4362793 C-70.27873047 1.37867432 -69.11019531 1.32106934 -67.90625 1.26171875 C-66.90029785 1.20553879 -66.90029785 1.20553879 -65.87402344 1.14822388 C-63.58308565 1.03051012 -61.29266431 0.95148245 -59 0.875 C-57.33527935 0.80379544 -55.67056608 0.73241841 -54.00585938 0.66088867 C-36.01632711 -0.03448491 -18.00053011 0.00987543 0 0 Z M-69.5 10.1875 C-69.35870667 10.93592667 -69.21741333 11.68435333 -69.07183838 12.45545959 C-68.88861023 13.44090256 -68.70538208 14.42634552 -68.51660156 15.44165039 C-68.33405823 16.41695206 -68.15151489 17.39225372 -67.96343994 18.39710999 C-66.31343352 28.33186321 -67.45940038 38.40355363 -69.5 48.1875 C-50.38739097 51.79643925 -29.95494963 50.34495597 -10.56298828 50.31787109 C-6.45656254 50.3121838 -2.35020174 50.31555667 1.75622177 50.32130814 C28.14457124 50.38184666 28.14457124 50.38184666 54.5 49.1875 C55.39708679 49.12492004 56.29417358 49.06234009 57.21844482 48.99786377 C58.11041565 48.92396423 59.00238647 48.8500647 59.92138672 48.77392578 C61.12757156 48.67593185 61.12757156 48.67593185 62.35812378 48.57595825 C65.53756772 47.99932305 67.3241828 46.50369251 69.5 44.1875 C71.6615286 39.86444281 70.77426848 34.12335536 70.8125 29.375 C70.84150391 28.18583984 70.87050781 26.99667969 70.90039062 25.77148438 C70.90876953 24.62357422 70.91714844 23.47566406 70.92578125 22.29296875 C70.94036377 21.24262451 70.95494629 20.19228027 70.9699707 19.11010742 C70.37190705 15.39092819 69.1731186 13.81094194 66.5 11.1875 C62.75605811 9.34533414 59.61161981 8.89952659 55.46313477 8.7800293 C54.26172348 8.74222855 53.06031219 8.7044278 51.82249451 8.66548157 C49.87041832 8.62030647 49.87041832 8.62030647 47.87890625 8.57421875 C46.49662012 8.53679732 45.11434179 8.4990866 43.73207092 8.46110535 C29.12443897 8.08196128 14.5140002 8.00020916 -0.09790039 8.00219727 C-3.07615198 8.00227873 -6.05425037 7.99527303 -9.0324707 7.98168945 C-29.2819691 7.89076815 -49.31192771 8.52968175 -69.5 10.1875 Z " fill="#FAAE42" transform="translate(105.5,377.8125)"/>
<path d="M0 0 C1.34325743 -0.00015522 2.6865153 -0.00164803 4.0297699 -0.00440979 C6.83474712 -0.00578888 9.63920995 0.00668231 12.4440918 0.02954102 C16.02740853 0.05795256 19.60987347 0.05517472 23.19325352 0.0424509 C25.96350803 0.03547495 28.73356789 0.04330421 31.50379753 0.05570793 C33.46350375 0.06237582 35.42323741 0.05809385 37.38294983 0.05360413 C39.18027809 0.07263039 39.18027809 0.07263039 41.01391602 0.09204102 C42.58774803 0.10014549 42.58774803 0.10014549 44.19337463 0.1084137 C49.36249958 0.77858754 53.22630559 2.97716275 56.49609375 6.99609375 C57.23279297 7.8778125 57.23279297 7.8778125 57.984375 8.77734375 C60.66829107 12.62399871 60.87696012 16.98114995 60.18359375 21.49609375 C58.02593062 26.98099441 54.7309197 30.36729472 49.75317383 33.40736389 C44.52638636 35.62195126 38.93053812 35.20478411 33.33984375 35.16015625 C32.00280315 35.16353194 30.66576555 35.1683908 29.32873535 35.1746521 C26.5380304 35.18198838 23.74813026 35.17142549 20.95751953 35.14794922 C17.39982277 35.11946078 13.84401231 35.13588266 10.28638458 35.16581154 C7.52884996 35.1839743 4.77175458 35.17808615 2.01420593 35.16517258 C0.07118489 35.16026694 -1.871854 35.17531665 -3.81481934 35.19082642 C-11.01779117 35.09581402 -16.36427536 34.49336531 -21.81640625 29.49609375 C-25.58393381 25.06631959 -26.52585555 20.7767834 -26.26171875 14.9921875 C-25.25468104 9.3474761 -22.57089373 5.82482103 -18.06884766 2.4152832 C-12.47408118 -0.69401128 -6.2258235 -0.05466902 0 0 Z " fill="#B53118" transform="translate(238.81640625,299.50390625)"/>
<path d="M0 0 C8.06229497 -0.46813326 15.88137249 0.31652513 23.875 1.3125 C24.87345947 1.43020752 25.87191895 1.54791504 26.90063477 1.66918945 C33.74340502 2.56832774 39.58138721 3.76053221 44.25 9.25 C44.72953125 9.79140625 45.2090625 10.3328125 45.703125 10.890625 C49.53615877 17.12507751 49.56638155 24.51807635 50.0625 31.625 C50.14483887 32.75365479 50.22717773 33.88230957 50.31201172 35.04516602 C52.70918645 69.65704633 52.43007178 104.26551644 50.125 138.875 C50.05877441 139.97908203 49.99254883 141.08316406 49.92431641 142.22070312 C49.32524422 150.4518783 48.08275991 157.91724009 42 164 C37.56120006 166.59469209 33.7773272 167.5531093 28.6875 168.125 C27.99672363 168.20282715 27.30594727 168.2806543 26.59423828 168.36083984 C14.07941155 169.70503537 1.58266961 170.17946755 -11 170 C-11 169.67 -11 169.34 -11 169 C-9.97640381 168.93006836 -8.95280762 168.86013672 -7.89819336 168.78808594 C-4.0743694 168.52221017 -0.25255093 168.23344301 3.5690918 167.93798828 C5.21837692 167.8136419 6.86813302 167.6953781 8.51831055 167.58349609 C10.90044781 167.42089778 13.27999218 167.23595922 15.66015625 167.046875 C16.38960953 167.0018988 17.11906281 166.95692261 17.87062073 166.9105835 C23.62742368 166.41925462 28.6290886 164.77214256 32.5234375 160.21875 C34.75016233 155.724443 36.01796825 151.94736593 36.38891602 146.97729492 C36.44887253 146.18647522 36.50882904 145.39565552 36.57060242 144.58087158 C36.66133781 143.29367218 36.66133781 143.29367218 36.75390625 141.98046875 C36.81935135 141.07101501 36.88479645 140.16156128 36.95222473 139.22454834 C39.37988401 104.65165177 40.32680087 70.15179163 37.6875 35.5625 C37.62882751 34.7668161 37.57015503 33.9711322 37.50970459 33.15133667 C36.95610266 19.41182634 36.95610266 19.41182634 30.125 8.125 C25.75751826 5.15511241 21.91572303 3.81956671 16.69921875 3.1484375 C15.72275391 3.01953125 14.74628906 2.890625 13.74023438 2.7578125 C12.73283203 2.63148438 11.72542969 2.50515625 10.6875 2.375 C9.66076172 2.2409375 8.63402344 2.106875 7.57617188 1.96875 C5.05148034 1.63995296 2.52616521 1.31724083 0 1 C0 0.67 0 0.34 0 0 Z " fill="#4369C4" transform="translate(446,327)"/>
<path d="M0 0 C31.68 0 63.36 0 96 0 C96 2.64 96 5.28 96 8 C95.4423999 8.13051758 94.8847998 8.26103516 94.31030273 8.39550781 C84.09937184 10.79116946 73.91214104 13.2268539 63.7890625 15.97265625 C59.44834529 17.14957236 55.10002788 18.29558464 50.75 19.4375 C49.13020375 19.86326382 47.51041211 20.28904517 45.890625 20.71484375 C45.08173828 20.92737793 44.27285156 21.13991211 43.43945312 21.35888672 C40.24686023 22.19793285 37.05453093 23.037978 33.86230469 23.87841797 C32.29538229 24.29071483 30.7283262 24.70250396 29.16113281 25.11376953 C25.00012034 26.20635971 20.84213051 27.3091486 16.6875 28.42578125 C15.81931641 28.6578125 14.95113281 28.88984375 14.05664062 29.12890625 C12.38786118 29.57510396 10.71985121 30.02419241 9.05273438 30.4765625 C5.95637468 31.30190343 3.21960958 32 0 32 C0 21.44 0 10.88 0 0 Z " fill="#3A3A3A" transform="translate(206,411)"/>
<path d="M0 0 C8.8554686 2.25942472 17.49100686 5.08376205 26.125 8.0625 C27.15983521 8.41775253 27.15983521 8.41775253 28.21557617 8.78018188 C41.67464163 13.4108558 54.83007666 18.59092434 68 24 C68 39.84 68 55.68 68 72 C69.65 72.66 71.3 73.32 73 74 C75.02518299 76.29520738 75.9658803 77.90816965 76.0625 81 C75.5821303 86.4441899 75.5821303 86.4441899 73.43408203 88.49511719 C72.96083496 88.99172852 72.48758789 89.48833984 72 90 C72.14230369 93.13068112 72.46198365 95.93114564 73 99 C73.16016602 99.92619141 73.32033203 100.85238281 73.48535156 101.80664062 C74.20115497 105.81781559 74.94707557 109.82267201 75.71484375 113.82421875 C75.89402344 114.80519531 76.07320313 115.78617187 76.2578125 116.796875 C76.4242627 117.67698242 76.59071289 118.55708984 76.76220703 119.46386719 C77.02155791 122.2299215 76.76082209 124.33409325 76 127 C72.58882607 129.83837029 68.15848541 129.2955912 63.9375 129.25 C63.21755859 129.25773438 62.49761719 129.26546875 61.75585938 129.2734375 C57.97065637 129.25937918 56.22139535 129.1475969 53 127 C52.31697497 118.66878117 54.13628663 110.68980465 55.66601562 102.53125 C55.84970703 101.50515625 56.03339844 100.4790625 56.22265625 99.421875 C56.48187866 98.03887207 56.48187866 98.03887207 56.74633789 96.62792969 C57.17126368 92.22571483 56.45058106 89.6758716 54 86 C53.23664741 79.34792743 53.23664741 79.34792743 55.05078125 76.14453125 C56.375 74.5 56.375 74.5 59 72 C59.66 72 60.32 72 61 72 C60.67 57.81 60.34 43.62 60 29 C53.73 26.36 47.46 23.72 41 21 C36.19143898 18.84039186 31.40082879 16.66566926 26.625 14.4375 C25.48417969 13.91220703 24.34335937 13.38691406 23.16796875 12.84570312 C15.27610623 9.1774651 7.6166575 5.20308015 0 1 C0 0.67 0 0.34 0 0 Z " fill="#F8AC41" transform="translate(258,163)"/>
<path d="M0 0 C3.25967835 1.42701475 5.35749802 3.19448734 7.875 5.6875 C16.08077924 13.12272007 26.36954274 17.29441431 37 20 C38.175625 20.37125 39.35125 20.7425 40.5625 21.125 C49.32557694 23.3556014 58.26494693 23.18286375 67.25 23.1875 C68.48363281 23.19974609 69.71726562 23.21199219 70.98828125 23.22460938 C83.12552267 23.24375329 94.38875646 21.49035377 106 18 C105.93952782 19.58437117 105.85061054 21.16767058 105.75 22.75 C105.70359375 23.63171875 105.6571875 24.5134375 105.609375 25.421875 C104.79274909 28.87683077 103.86939693 29.88370932 101 32 C97.93621351 32.60066432 94.91077002 32.54632705 91.796875 32.51757812 C90.40112244 32.52809204 90.40112244 32.52809204 88.97717285 32.53881836 C85.90114507 32.55642461 82.82603715 32.54476606 79.75 32.53125 C77.61295393 32.53394415 75.47590906 32.53782593 73.33886719 32.54284668 C68.85990733 32.5487453 64.38126653 32.54016683 59.90234375 32.52148438 C54.15857548 32.49869487 48.4155548 32.51181597 42.67181396 32.53577423 C38.25889443 32.55022221 33.8461524 32.54563076 29.43322754 32.53526306 C27.31530672 32.53259302 25.19736983 32.53587524 23.07946777 32.54518127 C20.12025205 32.55533018 17.16225021 32.5398686 14.203125 32.51757812 C13.32611938 32.52567505 12.44911377 32.53377197 11.54553223 32.54211426 C5.61098507 32.45921712 5.61098507 32.45921712 2.4627533 30.09300232 C0.88422351 27.83433948 0.43282888 26.60362434 0.25390625 23.87890625 C0.1986377 23.09273926 0.14336914 22.30657227 0.08642578 21.49658203 C-0.05860738 17.30700831 -0.10477572 13.12930005 -0.0625 8.9375 C-0.05798828 8.07189453 -0.05347656 7.20628906 -0.04882812 6.31445312 C-0.03719913 4.20960461 -0.01927073 2.10479242 0 0 Z " fill="#F89912" transform="translate(359,358)"/>
<path d="M0 0 C0.0928245 8.50165072 0.16382753 17.00308845 0.20724869 25.50512123 C0.22809247 29.45330373 0.25635049 33.40113863 0.30175781 37.34912109 C0.34533152 41.16169001 0.36916124 44.97392532 0.37950897 48.78672409 C0.38687981 50.23876571 0.40127356 51.69078979 0.42292023 53.14268875 C0.45210976 55.18227333 0.45594986 57.22049289 0.45410156 59.26025391 C0.46298401 60.41941315 0.47186646 61.57857239 0.48101807 62.77285767 C-0.21471024 67.44048746 -2.39410707 70.59647569 -5.921875 73.6796875 C-7.61458333 74.78645833 -9.30729167 75.89322917 -11 77 C-11.66 76.67 -12.32 76.34 -13 76 C-13.1875 73.6875 -13.1875 73.6875 -13 71 C-12.525625 70.566875 -12.05125 70.13375 -11.5625 69.6875 C-9.01955296 66.94111719 -8.88055215 63.59748812 -9 60 C-10.75366398 55.75428722 -11.76379181 55.1181041 -16 53 C-16 37.49 -16 21.98 -16 6 C-1 0 -1 0 0 0 Z " fill="#446AC4" transform="translate(342,182)"/>
<path d="M0 0 C8.8554686 2.25942472 17.49100686 5.08376205 26.125 8.0625 C27.15983521 8.41775253 27.15983521 8.41775253 28.21557617 8.78018188 C41.67464163 13.4108558 54.83007666 18.59092434 68 24 C68 39.51 68 55.02 68 71 C65.69 71 63.38 71 61 71 C60.505 50.21 60.505 50.21 60 29 C53.73 26.36 47.46 23.72 41 21 C36.19143898 18.84039186 31.40082879 16.66566926 26.625 14.4375 C25.48417969 13.91220703 24.34335937 13.38691406 23.16796875 12.84570312 C15.27610623 9.1774651 7.6166575 5.20308015 0 1 C0 0.67 0 0.34 0 0 Z " fill="#CAD4FA" transform="translate(258,163)"/>
<path d="M0 0 C1.05059601 -0.00039276 2.10119202 -0.00078552 3.18362427 -0.00119019 C25.26293016 0.00865402 47.43462836 0.51419456 69.375 3.1875 C65.03381409 6.08162394 60.86961888 5.91513948 55.7421875 6.296875 C54.09221268 6.42301178 54.09221268 6.42301178 52.40890503 6.55169678 C39.2063411 7.46416076 26.00035713 7.49086102 12.77392578 7.44824219 C9.2193242 7.43687071 5.66502296 7.44362514 2.11043167 7.45511627 C-11.99966909 7.4938214 -26.05081858 7.28194331 -40.1328125 6.296875 C-41.28457977 6.21939026 -42.43634705 6.14190552 -43.62301636 6.06207275 C-44.66668365 5.97939148 -45.71035095 5.89671021 -46.78564453 5.81152344 C-48.1582695 5.70393707 -48.1582695 5.70393707 -49.55862427 5.59417725 C-50.24052826 5.45997375 -50.92243225 5.32577026 -51.625 5.1875 C-51.955 4.5275 -52.285 3.8675 -52.625 3.1875 C-50.06289564 2.87145599 -47.50037871 2.55965373 -44.9375 2.25 C-43.8846582 2.11948242 -43.8846582 2.11948242 -42.81054688 1.98632812 C-40.41720752 1.6991274 -38.02247243 1.43791781 -35.625 1.1875 C-34.738125 1.09412354 -33.85125 1.00074707 -32.9375 0.90454102 C-21.97742618 -0.0946859 -10.99551637 -0.00869686 0 0 Z " fill="#D4DCFE" transform="translate(90.625,394.8125)"/>
<path d="M0 0 C3.78327146 0.0184059 7.56629741 0.02050738 11.34960938 0.02026367 C22.64675752 0.0362718 33.92954351 0.15443575 45.21679688 0.65112305 C46.08811249 0.689095 46.9594281 0.72706696 47.85714722 0.76618958 C54.62358207 1.10453218 61.23226221 1.91220641 67.88867188 3.20581055 C67.88867188 3.53581055 67.88867188 3.86581055 67.88867188 4.20581055 C64.32676587 4.52530779 60.76405536 4.834921 57.20117188 5.14331055 C56.23244141 5.23032227 55.26371094 5.31733398 54.265625 5.40698242 C36.05543095 6.9678562 17.84587405 7.40832659 -0.42382812 7.39331055 C-1.44749481 7.39370331 -2.4711615 7.39409607 -3.52584839 7.39450073 C-20.46213492 7.38673035 -37.39049158 7.21393511 -54.11132812 4.20581055 C-54.11132812 3.54581055 -54.11132812 2.88581055 -54.11132812 2.20581055 C-36.03303669 0.64811764 -18.14761464 -0.09092701 0 0 Z " fill="#D4DCFD" transform="translate(92.111328125,411.794189453125)"/>
<path d="M0 0 C1.57936844 -0.00108765 1.57936844 -0.00108765 3.19064331 -0.00219727 C21.9586797 -0.00077911 40.60306866 0.7217752 59.3125 2.1875 C59.3125 2.8475 59.3125 3.5075 59.3125 4.1875 C19.91386122 11.22053257 -24.12062356 8.85479361 -63.6875 4.1875 C-63.6875 3.8575 -63.6875 3.5275 -63.6875 3.1875 C-60.95913535 2.8663325 -58.23010664 2.5557546 -55.5 2.25 C-54.40461914 2.11948242 -54.40461914 2.11948242 -53.28710938 1.98632812 C-35.6117472 0.03843107 -17.76067092 -0.01260032 0 0 Z " fill="#D4DCFD" transform="translate(103.6875,452.8125)"/>
<path d="M0 0 C3.59311029 0.01066636 7.18571388 0.00006879 10.77880859 -0.01269531 C22.72412987 -0.02045003 34.60125831 0.28009042 46.51708984 1.15136719 C47.61405182 1.22885193 48.71101379 1.30633667 49.84121704 1.38616943 C51.36179214 1.51019135 51.36179214 1.51019135 52.91308594 1.63671875 C53.80079681 1.70844299 54.68850769 1.78016724 55.6031189 1.85406494 C58.06882253 2.27353013 59.83226858 3.02619221 61.99365234 4.26074219 C49.22109327 7.29201773 36.21596766 7.42059576 23.14599609 7.46386719 C22.46792971 7.46669456 21.78986332 7.46952194 21.09124947 7.472435 C17.50085208 7.48727413 13.91049326 7.49659889 10.32006836 7.50097656 C7.40652881 7.505351 4.49328709 7.51922444 1.57983398 7.54199219 C-15.16866781 7.670422 -31.47907905 7.37523919 -48.00634766 4.26074219 C-44.13920092 1.80790303 -39.93210173 1.5747643 -35.48291016 1.15136719 C-34.17684311 1.02523041 -34.17684311 1.02523041 -32.84439087 0.89654541 C-21.9114504 -0.05250903 -10.96637675 -0.03854614 0 0 Z " fill="#932010" transform="translate(315.00634765625,43.7392578125)"/>
<path d="M0 0 C2.36124468 1.95306453 2.93447148 2.46266615 3.3125 5.5625 C3 8 3 8 1 10 C-0.98828125 10.01171875 -0.98828125 10.01171875 -3.3125 9.6875 C-4.11171875 9.57921875 -4.9109375 9.4709375 -5.734375 9.359375 C-8.17283307 8.9725851 -10.59134546 8.54388973 -13 8 C-10.69 9.32 -8.38 10.64 -6 12 C-6.33 12.66 -6.66 13.32 -7 14 C-16.60131153 16.66703098 -27.23649205 15.74019462 -36 11 C-39.9563557 7.58192399 -39.9563557 7.58192399 -40.1875 4.5 C-38.43367051 0.80772739 -35.61297497 -0.47170454 -32 -2 C-21.39167752 -5.65804223 -10.01664586 -5.21773016 0 0 Z " fill="#272991" transform="translate(274,157)"/>
<path d="M0 0 C3.76211347 0.0113831 7.52394327 0.00463564 11.28604698 -0.0069046 C28.97956093 -0.05256361 46.46161754 0.44836062 64.08276367 2.26074219 C64.08276367 2.92074219 64.08276367 3.58074219 64.08276367 4.26074219 C46.72108478 6.68883299 29.33776828 6.56978075 11.84887695 6.52148438 C7.68305501 6.51012811 3.51748991 6.516821 -0.64832306 6.52838898 C-18.83779741 6.57093031 -36.81130076 6.23945907 -54.91723633 4.26074219 C-54.58723633 3.60074219 -54.25723633 2.94074219 -53.91723633 2.26074219 C-50.67909734 1.51680956 -47.31516565 1.40667637 -44.00708008 1.15136719 C-42.94802963 1.067276 -41.88897919 0.98318481 -40.7978363 0.89654541 C-27.21228624 -0.06959526 -13.61196826 -0.04150619 0 0 Z " fill="#D2DBFD" transform="translate(98.917236328125,469.7392578125)"/>
<path d="M0 0 C2.84319089 1.90301223 4.56259051 3.89427186 6 7 C6.66075392 11.7802691 5.65361884 15.01957174 3 19 C-0.98042826 21.65361884 -4.2197309 22.66075392 -9 22 C-12.87988348 20.20429185 -15.27245673 17.8205042 -16.86328125 13.83984375 C-17.55523526 10.33193777 -17.60587751 8.03616631 -15.7734375 4.90234375 C-11.02053449 -0.79879853 -7.2560108 -2.13554833 0 0 Z " fill="#FAFBFE" transform="translate(418,464)"/>
<path d="M0 0 C3.72943037 2.0475304 7.19368209 4.06860219 9 8 C9.2924877 12.7152562 8.63085129 16.05372306 6 20 C2.03658225 22.6422785 -1.2676549 23.28394071 -6 23 C-9.62976394 21.6585655 -10.71858603 20.43667685 -12.8125 17.1875 C-14.13583162 13.63539934 -14.68672439 11.7388328 -14 8 C-10.15737004 2.28893529 -7.14342594 -0.68686788 0 0 Z " fill="#FAFBFE" transform="translate(453,402)"/>
<path d="M0 0 C3.72943037 2.0475304 7.19368209 4.06860219 9 8 C9.2924877 12.7152562 8.63085129 16.05372306 6 20 C2.03658225 22.6422785 -1.2676549 23.28394071 -6 23 C-9.62976394 21.6585655 -10.71858603 20.43667685 -12.8125 17.1875 C-14.13583162 13.63539934 -14.68672439 11.7388328 -14 8 C-10.15737004 2.28893529 -7.14342594 -0.68686788 0 0 Z " fill="#FBFBFE" transform="translate(453,463)"/>
<path d="M0 0 C4.1657644 1.7588783 6.17507027 3.86989588 8 8 C8.59866575 12.01961286 8.18471519 13.66878655 6.1875 17.25 C4.00736386 19.99074258 2.46430532 21.76417555 -1.0859375 22.3359375 C-5.11172399 22.40463693 -7.40531432 22.35428083 -10.9375 20.25 C-13.78206465 17.14683856 -14.82909642 15.31026074 -15.375 11.125 C-14.89861498 7.15512486 -13.46959574 5.10463464 -11 2 C-7.28612182 -0.47591878 -4.30417439 -0.53907468 0 0 Z " fill="#FBFCFE" transform="translate(416,433)"/>
<path d="M0 0 C4.1657644 1.7588783 6.17507027 3.86989588 8 8 C8.59866575 12.01961286 8.18471519 13.66878655 6.1875 17.25 C4.00736386 19.99074258 2.46430532 21.76417555 -1.0859375 22.3359375 C-5.11172399 22.40463693 -7.40531432 22.35428083 -10.9375 20.25 C-13.78206465 17.14683856 -14.82909642 15.31026074 -15.375 11.125 C-14.89861498 7.15512486 -13.46959574 5.10463464 -11 2 C-7.28612182 -0.47591878 -4.30417439 -0.53907468 0 0 Z " fill="#FBFCFE" transform="translate(378,433)"/>
<path d="M0 0 C3.16118708 1.63913404 5.26864575 3.00269875 7.375 5.875 C8.23855538 8.81108828 8.36658209 10.94514926 8 14 C5.96006092 17.6578218 4.49580738 19.66946174 1 22 C-3.50282411 22.72517392 -6.99285654 22.60000036 -10.9375 20.25 C-13.78206465 17.14683856 -14.82909642 15.31026074 -15.375 11.125 C-14.89861498 7.15512486 -13.46959574 5.10463464 -11 2 C-7.29137017 -0.47241989 -4.30094385 -0.66668695 0 0 Z " fill="#FBFCFE" transform="translate(454,433)"/>
<path d="M0 0 C2.77365864 1.94501374 4.53333948 3.94161488 6 7 C6.66837866 11.7764621 5.65090375 15.02364438 3 19 C-0.97635562 21.65090375 -4.2235379 22.66837866 -9 22 C-12.71859222 20.21673459 -15.24257099 17.88424459 -16.79296875 14.02734375 C-17.54651498 10.15516065 -17.14134854 8.28813356 -15.375 4.6875 C-10.88078812 -0.39805555 -6.70572834 -2.53095583 0 0 Z " fill="#446AC5" transform="translate(418,403)"/>
<path d="M0 0 C2.77772117 1.93807875 4.53403266 3.94306036 6 7 C6.66837866 11.7764621 5.65090375 15.02364438 3 19 C-0.94547059 21.63031373 -4.26136574 22.57564395 -9 22 C-12.2189465 20.38370695 -14.25443194 17.97248008 -16.4375 15.125 C-17.31927745 11.79384074 -16.81612906 9.32281116 -16 6 C-11.93959365 -0.30063054 -7.37621602 -2.60917775 0 0 Z " fill="#FBFCFE" transform="translate(380,464)"/>
<path d="M0 0 C2.77772117 1.93807875 4.53403266 3.94306036 6 7 C6.66837866 11.7764621 5.65090375 15.02364438 3 19 C-0.94547059 21.63031373 -4.26136574 22.57564395 -9 22 C-12.2189465 20.38370695 -14.25443194 17.97248008 -16.4375 15.125 C-17.31927745 11.79384074 -16.81612906 9.32281116 -16 6 C-11.93959365 -0.30063054 -7.37621602 -2.60917775 0 0 Z " fill="#B3321B" transform="translate(380,403)"/>
<path d="M0 0 C3 2.625 3 2.625 5 6 C5.07144479 10.1437977 4.68996523 12.15423617 2.0625 15.375 C-1.38953386 18.09478425 -3.60372718 18.51720857 -8 18 C-11.47621856 15.45077306 -12.78253065 13.66448969 -14.125 9.5625 C-13.95278418 4.65434903 -12.46551473 3.38492136 -9 0 C-5.73616149 -1.63191925 -3.46807101 -0.88171297 0 0 Z " fill="#FBF6F5" transform="translate(146,39)"/>
<path d="M0 0 C4.20339327 1.37565598 5.97276112 2.42789168 8.4375 6.125 C8.76672157 10.03450619 8.56663611 13.66611618 6.11328125 16.8359375 C3.20345732 19.0742636 -0.01231323 19.43254914 -3.5625 19.125 C-7.88692933 16.80834143 -7.88692933 16.80834143 -9.5625 14.125 C-10.41758543 10.92420724 -10.42314318 8.3249753 -9.5625 5.125 C-7.1514807 1.38580516 -4.46319833 0.15660345 0 0 Z " fill="#FBF8F7" transform="translate(168.5625,37.875)"/>
<path d="M0 0 C2.09375 0.48046875 2.09375 0.48046875 4.65625 2.54296875 C6.45853899 6.22590712 6.67332768 8.423425 6.09375 12.48046875 C4.29812595 15.23375896 3.04120078 17.00674336 0.09375 18.48046875 C-3.77839182 18.91070673 -5.43121371 18.79715961 -8.71875 16.60546875 C-11.50274199 13.90101938 -11.84089155 13.05780171 -12.28125 9.16796875 C-11.90625 5.48046875 -11.90625 5.48046875 -9.96875 2.54296875 C-6.38112333 0.12681201 -4.24920081 -0.26203405 0 0 Z " fill="#FDF9F9" transform="translate(196.90625,38.51953125)"/>
<path d="M0 0 C2.875 2.0625 2.875 2.0625 5 5 C5.41064006 7.80690672 5.24231297 10.14070695 5 13 C4.01 13.495 4.01 13.495 3 14 C2.773125 12.741875 2.54625 11.48375 2.3125 10.1875 C1.53567642 7.13954638 1.20243801 6.18508618 -1.1875 4 C-4.59291486 2.78918583 -7.41198575 2.78894034 -11 3 C-7.25679731 -0.91334827 -5.37332126 -1.47502937 0 0 Z " fill="#952514" transform="translate(174,36)"/>
<path d="M0 0 C3.18256788 0.06931182 3.93424156 0.22826274 6.5625 2.25 C9.16438184 5.7885593 9.39942208 7.98424676 9.125 12.375 C8.465 13.035 7.805 13.695 7.125 14.375 C6.7846875 12.76625 6.7846875 12.76625 6.4375 11.125 C4.95985722 6.90316349 3.92995992 5.62338541 0.125 3.375 C-3.06262109 2.57809162 -3.06262109 2.57809162 -5.875 2.375 C-3.875 0.375 -3.875 0.375 0 0 Z " fill="#952717" transform="translate(143.875,35.625)"/>
<path d="M0 0 C7.09561034 -0.48105833 7.09561034 -0.48105833 10.9375 1.5625 C13.60131963 4.71065047 13.92441916 6.91863466 14 11 C13.34 11.66 12.68 12.32 12 13 C11.74605469 12.44570313 11.49210938 11.89140625 11.23046875 11.3203125 C10.88628906 10.59585938 10.54210937 9.87140625 10.1875 9.125 C9.85105469 8.40570313 9.51460937 7.68640625 9.16796875 6.9453125 C8.00532903 4.69457194 8.00532903 4.69457194 5 3 C3.0103005 2.60986284 1.00980131 2.26797351 -1 2 C-0.67 1.34 -0.34 0.68 0 0 Z " fill="#952515" transform="translate(192,36)"/>
</svg>
